<!--?xml version="1.0" standalone="no"?-->
              <svg id="sw-js-blob-svg" viewBox="0 0 100 100" xmlns="http://www.w3.org/2000/svg" version="1.1">
                    <defs> 
                        <linearGradient id="sw-gradient" x1="0" x2="1" y1="1" y2="0">
                            <stop id="stop1" stop-color="rgba(41.071, 44.622, 255, 1)" offset="0%"></stop>
                            <stop id="stop2" stop-color="rgba(0, 223.317, 146.857, 1)" offset="100%"></stop>
                        </linearGradient>
                    </defs>
                <path fill="url(#sw-gradient)" d="M10.4,-25.1C11.3,-17.4,8.5,-10.3,11.4,-6.3C14.2,-2.2,22.8,-1.1,27.8,2.9C32.8,6.9,34.4,13.8,33.1,20.6C31.8,27.3,27.6,33.9,21.6,36.3C15.6,38.7,7.8,37,1.2,35C-5.5,33,-10.9,30.7,-15.7,27.6C-20.4,24.4,-24.5,20.4,-29,15.7C-33.4,11,-38.4,5.5,-40.7,-1.3C-42.9,-8.1,-42.4,-16.2,-37.6,-20.3C-32.8,-24.5,-23.7,-24.8,-16.7,-29.1C-9.7,-33.3,-4.8,-41.5,-0.1,-41.4C4.7,-41.3,9.4,-32.8,10.4,-25.1Z" width="100%" height="100%" transform="translate(50 50)" stroke-width="0" style="transition: all 0.3s ease 0s;" stroke="url(#sw-gradient)"></path>
              </svg>