<!--?xml version="1.0" standalone="no"?-->
              <svg id="sw-js-blob-svg" viewBox="0 0 100 100" xmlns="http://www.w3.org/2000/svg" version="1.1">
                    <defs> 
                        <linearGradient id="sw-gradient" x1="0" x2="1" y1="1" y2="0">
                            <stop id="stop1" stop-color="rgba(248, 117, 55, 1)" offset="0%"></stop>
                            <stop id="stop2" stop-color="rgba(251, 168, 31, 1)" offset="100%"></stop>
                        </linearGradient>
                    </defs>
                <path fill="url(#sw-gradient)" d="M20.6,-35.4C25.5,-32.8,27.3,-24.9,30.3,-18.1C33.3,-11.2,37.4,-5.6,39.6,1.3C41.8,8.2,42.2,16.4,38.9,22.6C35.6,28.9,28.6,33.2,21.5,35.9C14.5,38.7,7.2,39.8,0.4,39.1C-6.4,38.4,-12.8,35.9,-19.4,32.8C-26,29.8,-32.8,26.3,-37.1,20.8C-41.4,15.2,-43.3,7.6,-41.3,1.1C-39.3,-5.3,-33.5,-10.7,-29,-15.8C-24.4,-21,-21.1,-25.9,-16.5,-28.6C-11.9,-31.3,-5.9,-31.8,1,-33.4C7.9,-35.1,15.7,-38,20.6,-35.4Z" width="100%" height="100%" transform="translate(50 50)" stroke-width="0" style="transition: all 0.3s ease 0s;"></path>
              </svg>